{"title":"(BRRip)Futurama-IntoTheWildGreenYonder.MKV.MPEG","uid":15711523,"size":1305604075,"categoryP":"video","categoryS":"movies","magnet":"?xt=urn:btih:9e78dfdf7ce82074da0c11486eb641e99f239013&amp;dn=%28BRRip%29Futurama-IntoTheWildGreenYonder.MKV.MPEG&amp;tr=udp%3A%2F%2Ftracker.leechers-paradise.org%3A6969&amp;tr=udp%3A%2F%2Fzer0day.ch%3A1337&amp;tr=udp%3A%2F%2Fopen.demonii.com%3A1337&amp;tr=udp%3A%2F%2Ftracker.coppersurfer.tk%3A6969&amp;tr=udp%3A%2F%2Fexodus.desync.com%3A6969","seeders":1,"leechers":0,"uploader":"sl1pstar","files":1,"time":1472579453,"description":"Format                                   : Matroska\r\nFormat version                           : Version 2\r\nFile size                                : 1.22 GiB\r\nDuration                                 : 1h 29mn\r\nOverall bit rate                         : 1 951 Kbps\r\nWriting application                      : Lavf52.17.0\r\nWriting library                          : Lavf52.17.0\r\n\r\nVideo\r\nID                                       : 1\r\nFormat                                   : AVC\r\nFormat/Info                              : Advanced Video Codec\r\nFormat profile                           :   \r\nFormat settings, CABAC                   : No\r\nFormat settings, ReFrames                : 1 frame\r\nCodec ID                                 : V_MPEG4/ISO/AVC\r\nDuration                                 : 1h 29mn\r\nBit rate                                 : 1 464 Kbps\r\nWidth                                    : 704 pixels\r\nHeight                                   : 400 pixels\r\nDisplay aspect ratio                     : 16:9\r\nFrame rate mode                          : Constant\r\nFrame rate                               : 24.000 fps\r\nOriginal frame rate                      : 23.976 (24000/1001) fps\r\nColor space                              : YUV\r\nChroma subsampling                       : 4:2:0\r\nBit depth                                : 8 bits\r\nScan type                                : Progressive\r\nBits/(Pixel*Frame)                       : 0.217\r\nStream size                              : 934 MiB (75%)\r\nDefault                                  : No\r\nForced                                   : No\r\n\r\nAudio\r\nID                                       : 2\r\nFormat                                   : AC-3\r\nFormat/Info                              : Audio Coding 3\r\nMode extension                           : CM (complete main)\r\nFormat settings, Endianness              : Big\r\nCodec ID                                 : A_AC3\r\nDuration                                 : 1h 29mn\r\nBit rate mode                            : Constant\r\nBit rate                                 : 448 Kbps\r\nChannel(s)                               : 6 channels\r\nChannel positions                        : Front: L C R, Side: L R, LFE\r\nSampling rate                            : 48.0 KHz\r\nFrame rate                               : 31.250 fps (1536 spf)\r\nBit depth                                : 16 bits\r\nCompression mode                         : Lossy\r\nStream size                              : 286 MiB (23%)\r\nDefault                                  : No\r\nForced                                   : No","torrent":{"xt":"urn:btih:9e78dfdf7ce82074da0c11486eb641e99f239013","amp;dn":"%28BRRip%29Futurama-IntoTheWildGreenYonder.MKV.MPEG","amp;tr":["udp%3A%2F%2Ftracker.leechers-paradise.org%3A6969","udp%3A%2F%2Fzer0day.ch%3A1337","udp%3A%2F%2Fopen.demonii.com%3A1337","udp%3A%2F%2Ftracker.coppersurfer.tk%3A6969","udp%3A%2F%2Fexodus.desync.com%3A6969"],"infoHash":"9e78dfdf7ce82074da0c11486eb641e99f239013","infoHashBuffer":{"type":"Buffer","data":[158,120,223,223,124,232,32,116,218,12,17,72,110,182,65,233,159,35,144,19]},"announce":[],"urlList":[]}}